<mxfile host="app.diagrams.net" modified="2024-03-20T09:51:58.244Z" agent="Mozilla/5.0 (Windows NT 10.0; Win64; x64) AppleWebKit/537.36 (KHTML, like Gecko) Chrome/120.0.0.0 Safari/537.36" version="24.0.7" etag="IMkuIx-_5W3mRpV2gh0_" type="github">
  <diagram name="Page-1" id="Le4jTXmYQAVauNMokKbs">
    <mxGraphModel>
      <root>
        <mxCell id="0" />
        <mxCell id="1" parent="0" />
      </root>
    </mxGraphModel>
  </diagram>
</mxfile>
